<svg width="839" height="239" viewBox="0 0 1539 339" fill="none" xmlns="http://www.w3.org/2000/svg">
<g clip-path="url(#clip0_1_15)">
<g clip-path="url(#clip1_1_15)">
<g clip-path="url(#clip2_1_15)">
<path d="M398.974 58.6232C398.974 47.8911 394.841 39.1911 389.743 39.1911C384.644 39.1911 380.511 47.8911 380.511 58.6232V280.377C380.511 291.109 384.644 299.809 389.743 299.809C394.841 299.809 398.974 291.109 398.974 280.377V58.6232Z" fill="#35185A"/>
</g>
<mask id="mask0_1_15" style="mask-type:luminance" maskUnits="userSpaceOnUse" x="2" y="-1" width="1535" height="341">
<g clip-path="url(#clip3_1_15)">
<g clip-path="url(#clip4_1_15)">
<path d="M398.974 58.6232C398.974 47.8911 394.841 39.1911 389.743 39.1911C384.644 39.1911 380.511 47.8911 380.511 58.6232V280.377C380.511 291.109 384.644 299.809 389.743 299.809C394.841 299.809 398.974 291.109 398.974 280.377V58.6232Z" fill="black"/>
<g clip-path="url(#clip5_1_15)">
<g clip-path="url(#clip6_1_15)">
<g clip-path="url(#clip7_1_15)">
<g clip-path="url(#clip8_1_15)">
<path d="M447.392 106.898C447.392 98.8402 448.609 91.2655 451.042 84.1735C453.475 77.1187 456.773 70.9364 460.935 65.6267C465.127 60.317 470.022 56.1212 475.621 53.0394C481.191 49.9575 487.156 48.4166 493.517 48.4166H564.177V87.4596H493.517C491.377 87.4596 489.384 87.9609 487.537 88.9634C485.661 89.9288 484.034 91.3026 482.656 93.0849C481.249 94.8672 480.15 96.9279 479.359 99.2672C478.567 101.644 478.171 104.187 478.171 106.898C478.171 109.608 478.567 112.17 479.359 114.584C480.15 116.96 481.249 119.039 482.656 120.822C484.034 122.604 485.661 123.996 487.537 124.999C489.384 125.964 491.377 126.447 493.517 126.447H524.34C530.701 126.447 536.695 127.969 542.324 131.014C547.952 134.059 552.862 138.236 557.054 143.546C561.216 148.855 564.499 155.056 566.903 162.148C569.307 169.277 570.508 176.87 570.508 184.928C570.508 192.985 569.307 200.56 566.903 207.652C564.499 214.707 561.216 220.889 557.054 226.199C552.862 231.508 547.952 235.704 542.324 238.786C536.695 241.868 530.701 243.409 524.34 243.409H455.967V204.366H524.34C526.48 204.366 528.488 203.864 530.364 202.862C532.211 201.897 533.837 200.523 535.244 198.74C536.652 196.958 537.736 194.897 538.498 192.558C539.29 190.182 539.685 187.638 539.685 184.928C539.685 182.217 539.29 179.674 538.498 177.297C537.736 174.958 536.652 172.897 535.244 171.115C533.837 169.37 532.211 167.996 530.364 166.994C528.488 165.991 526.48 165.49 524.34 165.49H493.517C487.156 165.49 481.191 163.949 475.621 160.867C470.022 157.785 465.127 153.589 460.935 148.28C456.773 142.97 453.475 136.769 451.042 129.677C448.609 122.548 447.392 114.955 447.392 106.898ZM665.484 243.409H643.279C636.185 243.409 629.531 241.701 623.316 238.285C617.073 234.906 611.62 230.246 606.96 224.305C602.269 218.364 598.576 211.458 595.879 203.586C593.212 195.677 591.878 187.248 591.878 178.3V135.024H577.588V98.0419H591.878V39.8394H621.074V98.0419H665.484V135.024H621.074V178.3C621.074 182.199 621.646 185.838 622.789 189.216C623.932 192.632 625.5 195.603 627.494 198.128C629.487 200.653 631.847 202.676 634.573 204.199C637.299 205.684 640.201 206.427 643.279 206.427H665.484V243.409ZM776.068 243.409L766.395 226.421C764.02 229.132 761.5 231.694 758.832 234.108C756.135 236.484 753.321 238.563 750.39 240.345C747.458 242.128 744.439 243.539 741.332 244.578C738.225 245.618 735.059 246.138 731.834 246.138C724.741 246.138 718.086 244.541 711.872 241.348C705.628 238.192 700.161 233.68 695.471 227.814C690.81 221.984 687.132 214.874 684.435 206.482C681.738 198.091 680.389 188.697 680.389 178.3V97.7634H709.586V178.3C709.586 183.164 710.186 187.527 711.388 191.389C712.561 195.25 714.144 198.499 716.137 201.135C718.16 203.772 720.505 205.758 723.172 207.095C725.869 208.469 728.757 209.156 731.834 209.156C734.824 209.156 737.668 208.264 740.365 206.482C743.061 204.737 745.406 202.398 747.4 199.465C749.393 196.568 750.961 193.282 752.105 189.606C753.248 185.967 753.819 182.199 753.819 178.3V97.7634H783.147V243.409H776.068ZM916.552 39.8394V243.409H909.473L898.085 223.414C895.3 226.607 892.354 229.578 889.247 232.325C886.14 235.073 882.871 237.468 879.442 239.51C875.983 241.552 872.451 243.167 868.845 244.356C865.239 245.544 861.575 246.138 857.852 246.138C849.762 246.138 842.155 244.207 835.032 240.345C827.909 236.484 821.68 231.137 816.345 224.305C811.01 217.473 806.803 209.36 803.725 199.966C800.647 190.572 799.109 180.342 799.109 169.277C799.109 158.324 800.647 148.131 803.725 138.7C806.803 129.269 811.01 121.119 816.345 114.249C821.68 107.343 827.909 101.941 835.032 98.0419C842.155 94.1431 849.762 92.1938 857.852 92.1938C860.432 92.1938 863.1 92.4723 865.855 93.0292C868.61 93.549 871.293 94.4216 873.902 95.6469C876.51 96.8722 878.958 98.4874 881.245 100.492C883.531 102.498 885.466 104.948 887.049 107.844V39.8394H916.552ZM887.049 169.277C887.049 164.227 886.272 159.326 884.718 154.573C883.194 149.784 881.113 145.551 878.474 141.875C875.807 138.236 872.7 135.303 869.153 133.075C865.635 130.847 861.868 129.733 857.852 129.733C853.837 129.733 850.055 130.643 846.508 132.462C842.961 134.281 839.883 136.881 837.275 140.26C834.666 143.676 832.614 147.834 831.119 152.735C829.624 157.6 828.876 163.113 828.876 169.277C828.876 174.624 829.624 179.711 831.119 184.538C832.614 189.328 834.666 193.542 837.275 197.181C839.883 200.82 842.961 203.679 846.508 205.758C850.055 207.837 853.837 208.877 857.852 208.877C861.868 208.877 865.635 207.763 869.153 205.535C872.7 203.308 875.807 200.356 878.474 196.68C881.113 193.004 883.194 188.789 884.718 184.037C886.272 179.284 887.049 174.364 887.049 169.277ZM981.628 299.161L966.59 298.882V261.51L982.903 261.788C985.747 261.788 988.502 261.194 991.17 260.006C993.808 258.818 996.255 257.184 998.513 255.105C1000.77 253.026 1002.76 250.556 1004.49 247.697C1006.19 244.838 1007.59 241.738 1008.67 238.396C1005.45 240.104 1002.16 241.812 998.82 243.52C995.508 245.265 992.166 246.138 988.795 246.138C981.701 246.138 975.047 244.541 968.833 241.348C962.618 238.192 957.166 233.68 952.476 227.814C947.786 221.984 944.092 214.874 941.395 206.482C938.728 198.091 937.394 188.697 937.394 178.3V97.7634H966.59V178.3C966.59 183.461 967.177 187.954 968.349 191.778C969.522 195.64 971.119 198.87 973.142 201.47C975.135 204.032 977.48 205.962 980.177 207.262C982.845 208.524 985.717 209.156 988.795 209.156C991.814 209.156 994.658 208.264 997.325 206.482C1000.02 204.737 1002.37 202.398 1004.36 199.465C1006.35 196.568 1007.94 193.282 1009.11 189.606C1010.25 185.967 1010.82 182.199 1010.82 178.3V97.7634H1040.33V225.029C1040.27 235.277 1038.7 244.894 1035.62 253.88C1032.55 262.865 1028.34 270.7 1023 277.383C1017.67 284.104 1011.45 289.414 1004.36 293.312C997.267 297.211 989.689 299.161 981.628 299.161ZM1056.73 106.898C1056.73 98.8402 1057.95 91.2655 1060.38 84.1735C1062.81 77.1187 1066.12 70.9364 1070.32 65.6267C1074.51 60.317 1079.39 56.1212 1084.96 53.0394C1090.56 49.9575 1096.54 48.4166 1102.9 48.4166H1173.51V87.4596H1102.9C1100.76 87.4596 1098.75 87.9609 1096.87 88.9634C1095.03 89.9288 1093.4 91.3026 1091.99 93.0849C1090.62 94.8672 1089.53 96.9279 1088.74 99.2672C1087.95 101.644 1087.55 104.187 1087.55 106.898C1087.55 109.608 1087.95 112.17 1088.74 114.584C1089.53 116.96 1090.62 119.039 1091.99 120.822C1093.4 122.604 1095.03 123.996 1096.87 124.999C1098.75 125.964 1100.76 126.447 1102.9 126.447H1133.72C1140.08 126.447 1146.08 127.969 1151.7 131.014C1157.3 134.059 1162.2 138.236 1166.39 143.546C1170.58 148.855 1173.88 155.056 1176.28 162.148C1178.69 169.277 1179.89 176.87 1179.89 184.928C1179.89 192.985 1178.69 200.56 1176.28 207.652C1173.88 214.707 1170.58 220.889 1166.39 226.199C1162.2 231.508 1157.3 235.704 1151.7 238.786C1146.08 241.868 1140.08 243.409 1133.72 243.409H1065.35V204.366H1133.72C1135.86 204.366 1137.85 203.864 1139.7 202.862C1141.58 201.897 1143.22 200.523 1144.62 198.74C1146 196.958 1147.09 194.897 1147.88 192.558C1148.67 190.182 1149.07 187.638 1149.07 184.928C1149.07 182.217 1148.67 179.674 1147.88 177.297C1147.09 174.958 1146 172.897 1144.62 171.115C1143.22 169.37 1141.58 167.996 1139.7 166.994C1137.85 165.991 1135.86 165.49 1133.72 165.49H1102.9C1096.54 165.49 1090.56 163.949 1084.96 160.867C1079.39 157.785 1074.51 153.589 1070.32 148.28C1066.12 142.97 1062.81 136.769 1060.38 129.677C1057.95 122.548 1056.73 114.955 1056.73 106.898ZM1225.35 233.606V298.882H1195.85V97.7634H1202.93L1214.63 115.308C1217.29 112.152 1220.19 109.163 1223.33 106.341C1226.47 103.519 1229.74 101.087 1233.14 99.0444C1236.54 97.0393 1240.07 95.4427 1243.73 94.2545C1247.37 93.0663 1251.05 92.4722 1254.77 92.4722C1262.86 92.4722 1270.47 94.3102 1277.59 97.9862C1284.71 101.662 1290.94 106.842 1296.28 113.525C1301.61 120.246 1305.82 128.341 1308.9 137.809C1311.97 147.277 1313.51 157.767 1313.51 169.277C1313.51 181.27 1311.97 192.038 1308.9 201.581C1305.82 211.161 1301.61 219.274 1296.28 225.92C1290.94 232.604 1284.71 237.709 1277.59 241.237C1270.47 244.764 1262.86 246.528 1254.77 246.528C1252.19 246.528 1249.64 246.175 1247.12 245.469C1244.57 244.727 1242.06 243.743 1239.6 242.518C1237.14 241.292 1234.7 239.918 1232.3 238.396C1229.9 236.837 1227.58 235.24 1225.35 233.606ZM1284.1 169.277C1284.1 163.113 1283.32 157.6 1281.77 152.735C1280.24 147.834 1278.16 143.676 1275.52 140.26C1272.86 136.881 1269.73 134.281 1266.16 132.462C1262.58 130.643 1258.79 129.733 1254.77 129.733C1250.78 129.733 1247.02 130.643 1243.47 132.462C1239.92 134.281 1236.83 136.881 1234.19 140.26C1231.52 143.676 1229.43 147.834 1227.9 152.735C1226.35 157.6 1225.57 163.113 1225.57 169.277C1225.57 175.181 1226.35 180.584 1227.9 185.485C1229.43 190.386 1231.52 194.563 1234.19 198.016C1236.83 201.432 1239.92 204.106 1243.47 206.037C1247.02 207.93 1250.78 208.877 1254.77 208.877C1258.79 208.877 1262.58 207.93 1266.16 206.037C1269.73 204.106 1272.86 201.432 1275.52 198.016C1278.16 194.563 1280.24 190.386 1281.77 185.485C1283.32 180.584 1284.1 175.181 1284.1 169.277ZM1440.81 169.277C1440.81 180.157 1439.27 190.293 1436.19 199.687C1433.11 209.081 1428.92 217.194 1423.61 224.027C1418.34 230.859 1412.14 236.261 1405.02 240.234C1397.89 244.17 1390.26 246.138 1382.11 246.138C1374.02 246.138 1366.41 244.17 1359.29 240.234C1352.16 236.261 1345.93 230.859 1340.6 224.027C1335.26 217.194 1331.06 209.081 1327.98 199.687C1324.9 190.293 1323.36 180.157 1323.36 169.277C1323.36 158.249 1324.9 148.02 1327.98 138.589C1331.06 129.157 1335.26 121.007 1340.6 114.138C1345.93 107.306 1352.16 101.941 1359.29 98.0419C1366.41 94.1431 1374.02 92.1938 1382.11 92.1938C1390.26 92.1938 1397.89 94.0317 1405.02 97.7077C1412.14 101.384 1418.34 106.6 1423.61 113.358C1428.92 120.116 1433.11 128.229 1436.19 137.698C1439.27 147.166 1440.81 157.692 1440.81 169.277ZM1411.3 169.277C1411.3 163.299 1410.53 157.897 1408.97 153.07C1407.45 148.206 1405.35 144.028 1402.68 140.538C1400.05 137.048 1396.95 134.374 1393.41 132.518C1389.86 130.661 1386.09 129.733 1382.11 129.733C1378.09 129.733 1374.31 130.661 1370.76 132.518C1367.22 134.374 1364.14 137.048 1361.53 140.538C1358.92 144.028 1356.87 148.206 1355.37 153.07C1353.85 157.897 1353.09 163.299 1353.09 169.277C1353.09 174.921 1353.85 180.138 1355.37 184.928C1356.87 189.755 1358.92 193.932 1361.53 197.459C1364.14 200.987 1367.22 203.772 1370.76 205.814C1374.31 207.856 1378.09 208.877 1382.11 208.877C1386.09 208.877 1389.86 207.93 1393.41 206.037C1396.95 204.106 1400.05 201.432 1402.68 198.016C1405.35 194.563 1407.45 190.386 1408.97 185.485C1410.53 180.584 1411.3 175.181 1411.3 169.277ZM1536 243.409H1513.8C1506.7 243.409 1500.05 241.701 1493.83 238.285C1487.59 234.906 1482.14 230.246 1477.48 224.305C1472.79 218.364 1469.09 211.458 1466.4 203.586C1463.73 195.677 1462.4 187.248 1462.4 178.3V135.024H1448.11V98.0419H1462.4V39.8394H1491.59V98.0419H1536V135.024H1491.59V178.3C1491.59 182.199 1492.16 185.838 1493.31 189.216C1494.45 192.632 1496.02 195.603 1498.01 198.128C1500.01 200.653 1502.36 202.676 1505.09 204.199C1507.82 205.684 1510.72 206.427 1513.8 206.427H1536V243.409Z" fill="white"/>
</g>
</g>
</g>
</g>
<g clip-path="url(#clip9_1_15)">
<g clip-path="url(#clip10_1_15)">
<path d="M107.132 279.78V153.067L170.925 110.115C174.433 107.757 175.766 102.237 173.901 97.789C172.033 93.3448 167.678 91.6531 164.167 94.0192L97.6336 138.815C95.1468 140.492 93.7739 141.703 93.0112 145.119C92.5161 147.113 92.7406 150.135 92.7406 151.904V279.776C84.1664 283.561 77.9897 293.875 77.9897 306.008V339.731H121.883V306.008C121.883 293.878 115.703 283.564 107.132 279.78Z" fill="black"/>
<path d="M81.2277 160.533L73.5486 155.218V179.036C73.5486 190.221 76.2973 200.859 81.2277 210.513V160.533Z" fill="black"/>
<path d="M167.088 219.974L159.783 214.914L118.645 184.275V246.869C132.777 254.132 149.355 258.317 167.091 258.317C218.752 258.317 260.633 222.829 260.633 179.039V155.218L174.393 214.914L167.088 219.974Z" fill="black"/>
<path d="M167.091 -0.731384L24.0231 99.3275L24.6247 99.7468L82.192 139.599C84.5089 130.601 89.6811 127.05 92.2283 125.333L158.761 80.5371C161.458 78.7215 164.492 77.7626 167.537 77.7626C174.465 77.7626 180.8 82.5751 184.067 90.3479C188.902 101.891 185.428 116.262 176.327 122.391L118.642 161.226L167.088 198.369L309.73 99.6265L310.159 99.3275L167.091 -0.731384Z" fill="black"/>
<path d="M167.281 92.3859C167.454 92.3786 167.626 92.3859 167.799 92.3896C167.71 92.3859 167.623 92.3458 167.534 92.3458C167.451 92.3458 167.367 92.3823 167.281 92.3859Z" fill="black"/>
</g>
</g>
</g>
</g>
</mask>
<g mask="url(#mask0_1_15)">
<path d="M1536.09 -0.7314H2.00079V339.731H1536.09V-0.7314Z" fill="url(#paint0_linear_1_15)"/>
</g>
<mask id="mask1_1_15" style="mask-type:luminance" maskUnits="userSpaceOnUse" x="2" y="-1" width="1535" height="341">
<g clip-path="url(#clip11_1_15)">
<g clip-path="url(#clip12_1_15)">
<path d="M398.974 58.6232C398.974 47.8911 394.841 39.1911 389.743 39.1911C384.644 39.1911 380.511 47.8911 380.511 58.6232V280.377C380.511 291.109 384.644 299.809 389.743 299.809C394.841 299.809 398.974 291.109 398.974 280.377V58.6232Z" fill="black"/>
<g clip-path="url(#clip13_1_15)">
<g clip-path="url(#clip14_1_15)">
<path d="M107.132 279.78V153.067L170.925 110.115C174.433 107.757 175.766 102.237 173.901 97.789C172.033 93.3448 167.678 91.6531 164.167 94.0192L97.6336 138.815C95.1468 140.492 93.7739 141.703 93.0112 145.119C92.5161 147.113 92.7406 150.135 92.7406 151.904V279.776C84.1664 283.561 77.9897 293.875 77.9897 306.008V339.731H121.883V306.008C121.883 293.878 115.703 283.564 107.132 279.78Z" fill="white"/>
<path d="M81.2277 160.533L73.5486 155.218V179.036C73.5486 190.221 76.2973 200.859 81.2277 210.513V160.533Z" fill="white"/>
<path d="M167.088 219.974L159.783 214.914L118.645 184.275V246.869C132.777 254.132 149.355 258.317 167.091 258.317C218.752 258.317 260.633 222.829 260.633 179.039V155.218L174.393 214.914L167.088 219.974Z" fill="white"/>
<path d="M167.091 -0.731384L24.0231 99.3275L24.6247 99.7468L82.192 139.599C84.5089 130.601 89.6811 127.05 92.2283 125.333L158.761 80.5371C161.458 78.7215 164.492 77.7626 167.537 77.7626C174.465 77.7626 180.8 82.5751 184.067 90.3479C188.902 101.891 185.428 116.262 176.327 122.391L118.642 161.226L167.088 198.369L309.73 99.6265L310.159 99.3275L167.091 -0.731384Z" fill="white"/>
<path d="M167.281 92.3859C167.454 92.3786 167.626 92.3859 167.799 92.3896C167.71 92.3859 167.623 92.3458 167.534 92.3458C167.451 92.3458 167.367 92.3823 167.281 92.3859Z" fill="white"/>
</g>
</g>
</g>
</g>
</mask>
<g mask="url(#mask1_1_15)">
<path d="M1536.09 -0.7314H2.00079V339.731H1536.09V-0.7314Z" fill="url(#paint1_linear_1_15)"/>
</g>
</g>
</g>
<defs>
<linearGradient id="paint0_linear_1_15" x1="2.00079" y1="196.056" x2="1527.58" y2="312.916" gradientUnits="userSpaceOnUse">
<stop stop-color="#6EE2F5"/>
<stop offset="1" stop-color="#6454F0"/>
</linearGradient>
<linearGradient id="paint1_linear_1_15" x1="84.8416" y1="169.5" x2="1445.58" y2="169.5" gradientUnits="userSpaceOnUse">
<stop stop-color="#0F3054"/>
<stop offset="0.498" stop-color="#3B8DCB"/>
<stop offset="1" stop-color="#0F3054"/>
</linearGradient>
<clipPath id="clip0_1_15">
<rect width="1538.09" height="339" fill="white"/>
</clipPath>
<clipPath id="clip1_1_15">
<rect width="1534.09" height="340.463" fill="white" transform="translate(2.00079 -0.7314)"/>
</clipPath>
<clipPath id="clip2_1_15">
<rect width="1534.09" height="340.463" fill="white" transform="translate(2.00079 -0.7314)"/>
</clipPath>
<clipPath id="clip3_1_15">
<rect width="1534.09" height="340.463" fill="white" transform="translate(2.00079 -0.7314)"/>
</clipPath>
<clipPath id="clip4_1_15">
<rect width="1534.09" height="340.463" fill="white" transform="translate(2.00079 -0.7314)"/>
</clipPath>
<clipPath id="clip5_1_15">
<rect width="1088.79" height="259.321" fill="white" transform="translate(447.304 39.8394)"/>
</clipPath>
<clipPath id="clip6_1_15">
<rect width="1088.79" height="259.321" fill="white" transform="translate(447.304 39.8394)"/>
</clipPath>
<clipPath id="clip7_1_15">
<rect width="1088.79" height="259.321" fill="white" transform="translate(447.304 39.8394)"/>
</clipPath>
<clipPath id="clip8_1_15">
<rect width="1088.79" height="259.321" fill="white" transform="translate(447.304 39.8394)"/>
</clipPath>
<clipPath id="clip9_1_15">
<rect width="330.18" height="340.463" fill="white" transform="translate(2.00079 -0.7314)"/>
</clipPath>
<clipPath id="clip10_1_15">
<rect width="286.135" height="340.463" fill="white" transform="translate(24.0231 -0.731415)"/>
</clipPath>
<clipPath id="clip11_1_15">
<rect width="1534.09" height="340.463" fill="white" transform="translate(2.00079 -0.7314)"/>
</clipPath>
<clipPath id="clip12_1_15">
<rect width="1534.09" height="340.463" fill="white" transform="translate(2.00079 -0.7314)"/>
</clipPath>
<clipPath id="clip13_1_15">
<rect width="330.18" height="340.463" fill="white" transform="translate(2.00079 -0.7314)"/>
</clipPath>
<clipPath id="clip14_1_15">
<rect width="286.135" height="340.463" fill="white" transform="translate(24.0231 -0.731415)"/>
</clipPath>
</defs>
</svg>
